<svg shape-rendering="geometricPrecision" xmlns="http://www.w3.org/2000/svg" viewBox="0 0 169 169"><defs><style>.cls-1{fill:none;stroke:#000;stroke-miterlimit:10;}</style></defs><title>icon</title><g id="Layer_2" data-name="Layer 2"><g id="Layer_1-2" data-name="Layer 1"><path class="cls-1" d="M84.5,5.5a79,79,0,1,1-79,79,79.09,79.09,0,0,1,79-79m0-5a84,84,0,1,0,84,84,84,84,0,0,0-84-84Z"/><path d="M76,94.5A27.5,27.5,0,1,1,48.5,122,27.54,27.54,0,0,1,76,94.5m10,32a6.5,6.5,0,1,0-6.5-6.5,6.51,6.51,0,0,0,6.5,6.5m-14,9a3.5,3.5,0,1,0-3.5-3.5,3.5,3.5,0,0,0,3.5,3.5m4-42A28.5,28.5,0,1,0,104.5,122,28.5,28.5,0,0,0,76,93.5Zm10,32a5.5,5.5,0,1,1,5.5-5.5,5.5,5.5,0,0,1-5.5,5.5Zm-14,9a2.5,2.5,0,1,1,2.5-2.5,2.5,2.5,0,0,1-2.5,2.5Z"/></g></g></svg>
